ffmpeg started on 2016-11-28 at 05:03:25
Report written to "Output/NVENCh264/results/ffmpeg/sintelllhp10000k.log"
Command line:
Tools/ffmpeg/ffmpeg -benchmark -y -i Input/y4m/sintel.y4m -c:v h264_nvenc -preset llhp -b:v 10000k -an Output/NVENCh264/encoded/sintelllhp10000k.mkv
ffmpeg version N-82227-gdb23fde Copyright (c) 2000-2016 the FFmpeg developers
  built with gcc 5.4.0 (Ubuntu 5.4.0-6ubuntu1~16.04.2) 20160609
  configuration: --prefix=/home/jaroslav/ffmpeg_build --pkg-config-flags=--static --extra-cflags=-I/home/jaroslav/ffmpeg_build/include --extra-ldflags=-L/home/jaroslav/ffmpeg_build/lib --bindir=/home/jaroslav/bin --enable-gpl --enable-libass --enable-libfdk-aac --enable-libfreetype --enable-libmp3lame --enable-libopus --enable-libtheora --enable-libvorbis --enable-libvpx --enable-libx264 --enable-libx265 --enable-nvenc --enable-libmfx --enable-libxvid --enable-libgsm --enable-libopencore-amrnb --enable-version3 --enable-nonfree
  libavutil      55. 35.100 / 55. 35.100
  libavcodec     57. 66.101 / 57. 66.101
  libavformat    57. 57.100 / 57. 57.100
  libavdevice    57.  2.100 / 57.  2.100
  libavfilter     6. 66.100 /  6. 66.100
  libswscale      4.  3.100 /  4.  3.100
  libswresample   2.  4.100 /  2.  4.100
  libpostproc    54.  2.100 / 54.  2.100
Input #0, yuv4mpegpipe, from 'Input/y4m/sintel.y4m':
  Duration: 00:00:20.83, start: 0.000000, bitrate: 2057307 kb/s
    Stream #0:0: Video: rawvideo (I420 / 0x30323449), yuv420p(progressive), 4096x1744, SAR 1:1 DAR 256:109, 24 fps, 24 tbr, 24 tbn, 24 tbc
[h264_nvenc @ 0x3f721c0] The variable bitrate rate-control requires the 'qmin' and/or 'qmax' option set.
Output #0, matroska, to 'Output/NVENCh264/encoded/sintelllhp10000k.mkv':
  Metadata:
    encoder         : Lavf57.57.100
    Stream #0:0: Video: h264 (h264_nvenc) (Main) (H264 / 0x34363248), yuv420p, 4096x1744 [SAR 1:1 DAR 256:109], q=-1--1, 10000 kb/s, 24 fps, 1k tbn, 24 tbc
    Metadata:
      encoder         : Lavc57.66.101 h264_nvenc
    Side data:
      cpb: bitrate max/min/avg: 0/0/10000000 buffer size: 20000000 vbv_delay: -1
Stream mapping:
  Stream #0:0 -> #0:0 (rawvideo (native) -> h264 (h264_nvenc))
Press [q] to stop, [?] for help
frame=    8 fps=0.0 q=0.0 size=       0kB time=00:00:00.00 bitrate=N/A speed=   0x    frame=   20 fps= 20 q=0.0 size=       0kB time=00:00:00.00 bitrate=N/A speed=   0x    frame=   41 fps= 27 q=35.0 size=       1kB time=00:00:00.41 bitrate=  14.3kbits/s speed=0.274x    frame=   62 fps= 30 q=34.0 size=       1kB time=00:00:01.29 bitrate=   4.6kbits/s speed=0.634x    frame=   83 fps= 33 q=33.0 size=       1kB time=00:00:02.16 bitrate=   2.8kbits/s speed=0.851x    frame=  104 fps= 34 q=31.0 size=       1kB time=00:00:03.04 bitrate=   2.0kbits/s speed=0.995x    frame=  125 fps= 35 q=29.0 size=       1kB time=00:00:03.91 bitrate=   1.5kbits/s speed= 1.1x    frame=  145 fps= 36 q=27.0 size=    5169kB time=00:00:04.75 bitrate=8912.4kbits/s speed=1.17x    frame=  147 fps= 20 q=31.0 size=    5713kB time=00:00:04.83 bitrate=9681.2kbits/s speed=0.647x    frame=  148 fps= 14 q=30.0 size=    5713kB time=00:00:04.87 bitrate=9597.8kbits/s speed=0.461x    frame=  149 fps= 12 q=30.0 size=    5713kB time=00:00:04.91 bitrate=9515.9kbits/s speed=0.391x    frame=  170 fps= 13 q=31.0 size=    5713kB time=00:00:05.79 bitrate=8078.5kbits/s speed=0.442x    frame=  191 fps= 14 q=30.0 size=    5713kB time=00:00:06.66 bitrate=7018.4kbits/s speed=0.49x    frame=  212 fps= 15 q=29.0 size=    5713kB time=00:00:07.54 bitrate=6204.3kbits/s speed=0.534x    frame=  233 fps= 16 q=29.0 size=    5713kB time=00:00:08.41 bitrate=5559.4kbits/s speed=0.575x    frame=  252 fps= 16 q=32.0 size=   10846kB time=00:00:09.20 bitrate=9648.2kbits/s speed=0.602x    frame=  273 fps= 17 q=28.0 size=   10846kB time=00:00:10.08 bitrate=8811.0kbits/s speed=0.638x    frame=  294 fps= 18 q=26.0 size=   10846kB time=00:00:10.95 bitrate=8107.5kbits/s speed=0.672x    frame=  315 fps= 19 q=29.0 size=   13284kB time=00:00:11.83 bitrate=9195.7kbits/s speed=0.703x    frame=  336 fps= 19 q=25.0 size=   13284kB time=00:00:12.70 bitrate=8562.6kbits/s speed=0.733x    frame=  357 fps= 20 q=25.0 size=   13284kB time=00:00:13.58 bitrate=8011.0kbits/s speed=0.76x    frame=  378 fps= 21 q=24.0 size=   13284kB time=00:00:14.45 bitrate=7526.2kbits/s speed=0.787x    frame=  398 fps= 21 q=25.0 size=   18488kB time=00:00:15.29 bitrate=9903.4kbits/s speed=0.81x    frame=  419 fps= 22 q=24.0 size=   18488kB time=00:00:16.16 bitrate=9367.4kbits/s speed=0.833x    frame=  440 fps= 22 q=30.0 size=   18488kB time=00:00:17.04 bitrate=8886.5kbits/s speed=0.856x    frame=  461 fps= 23 q=30.0 size=   21222kB time=00:00:17.91 bitrate=9702.7kbits/s speed=0.877x    frame=  482 fps= 23 q=29.0 size=   21222kB time=00:00:18.79 bitrate=9250.9kbits/s speed=0.897x    frame=  498 fps= 23 q=29.0 size=   21222kB time=00:00:19.45 bitrate=8934.3kbits/s speed=0.904x    frame=  500 fps= 23 q=29.0 Lsize=   25452kB time=00:00:20.79 bitrate=10027.6kbits/s speed=0.96x    
video:25447kB audio:0kB subtitle:0kB other streams:0kB global headers:0kB muxing overhead: 0.019119%
bench: utime=0.896s
bench: maxrss=1195960kB
